<svg width="1920" height="444" viewBox="0 0 1920 444" fill="none" xmlns="http://www.w3.org/2000/svg">
<path d="M-13 431.64V49.9853H273.914C364.887 49.9853 398.8 90.3579 398.8 145.265C398.8 187.252 375.115 218.473 334.204 233.546C382.113 244.85 420.87 271.765 420.87 327.748C420.87 390.73 380.498 431.64 298.138 431.64H-13ZM59.1323 377.81H275.529C320.208 377.81 346.046 360.585 346.046 319.674C346.046 275.533 311.595 262.614 275.529 262.614H59.1323V377.81ZM59.1323 216.32H253.997C292.755 216.32 327.206 202.863 327.206 159.26C327.206 120.503 301.368 103.815 253.997 103.815H59.1323V216.32Z" stroke="#1DF4F4" stroke-width="1.29691"/>
<path d="M452.782 431.64V1H523.838V431.64H452.782Z" stroke="#1DF4F4" stroke-width="1.29691"/>
<path d="M785.293 442.406C647.488 442.406 563.513 379.425 563.513 272.842C563.513 166.258 649.103 102.739 781.524 102.739C915.023 102.739 996.307 168.411 996.307 298.68H640.49C651.256 355.202 702.933 385.347 787.446 385.347C856.887 385.347 903.719 363.815 917.715 327.21H991.462C972.083 399.342 901.566 442.406 785.293 442.406ZM641.566 243.235H919.33C906.41 185.099 859.04 159.26 782.063 159.26C704.548 159.26 654.486 186.175 641.566 243.235Z" stroke="#1DF4F4" stroke-width="1.29691"/>
<path d="M1032.13 431.64V113.505H1107.49V182.407C1148.4 131.269 1211.38 102.739 1293.2 102.739C1395.48 102.739 1457.92 144.188 1457.92 269.612V431.64H1382.56V294.912C1382.56 201.248 1345.95 165.72 1259.29 165.72C1169.39 165.72 1107.49 214.705 1107.49 297.604V431.64H1032.13Z" stroke="#1DF4F4" stroke-width="1.29691"/>
<path d="M1861.71 431.64V364.891C1828.87 413.877 1767.51 442.945 1691.07 442.945C1572.64 442.945 1496.2 376.195 1496.2 273.38C1496.2 170.565 1572.64 103.277 1691.07 103.277C1767.51 103.277 1828.87 132.345 1861.71 181.869V1H1932.23V431.64H1861.71ZM1574.26 273.38C1574.26 337.976 1627.55 379.964 1713.68 379.964C1805.73 379.964 1861.71 337.976 1861.71 273.38C1861.71 208.246 1805.73 166.258 1713.68 166.258C1627.55 166.258 1574.26 208.246 1574.26 273.38Z" stroke="#1DF4F4" stroke-width="1.29691"/>
</svg>
