<svg width="229" height="45" viewBox="0 0 229 45" fill="none" xmlns="http://www.w3.org/2000/svg">
<path d="M0 37.0652V10.2838H20.1333C26.517 10.2838 28.8968 13.1168 28.8968 16.9697C28.8968 19.916 27.2347 22.1069 24.364 23.1646C27.7258 23.9578 30.4455 25.8465 30.4455 29.7749C30.4455 34.1944 27.6125 37.0652 21.8331 37.0652H0ZM5.06166 33.2879H20.2466C23.3818 33.2879 25.195 32.0791 25.195 29.2083C25.195 26.1109 22.7775 25.2043 20.2466 25.2043H5.06166V33.2879ZM5.06166 21.9558H18.7357C21.4554 21.9558 23.8729 21.0115 23.8729 17.9518C23.8729 15.2321 22.0598 14.0611 18.7357 14.0611H5.06166V21.9558Z" fill="#A2F3F3"/>
<path d="M32.6848 37.0652V6.84637H37.6709V37.0652H32.6848Z" fill="#A2F3F3"/>
<path d="M56.0177 37.8207C46.3477 37.8207 40.455 33.4012 40.455 25.922C40.455 18.4429 46.461 13.9856 55.7533 13.9856C65.1211 13.9856 70.8249 18.594 70.8249 27.7352H45.8566C46.6121 31.7014 50.2383 33.8167 56.1688 33.8167C61.0416 33.8167 64.3279 32.3058 65.31 29.7372H70.485C69.1251 34.7988 64.1768 37.8207 56.0177 37.8207ZM45.9322 23.8445H65.4233C64.5168 19.7649 61.1927 17.9518 55.7911 17.9518C50.3517 17.9518 46.8387 19.8405 45.9322 23.8445Z" fill="#A2F3F3"/>
<path d="M73.3384 37.0652V14.741H78.6267V19.5761C81.4975 15.9876 85.917 13.9856 91.6586 13.9856C98.8356 13.9856 103.217 16.8941 103.217 25.6954V37.0652H97.929V27.4707C97.929 20.8981 95.3604 18.4051 89.2789 18.4051C82.9707 18.4051 78.6267 21.8425 78.6267 27.6596V37.0652H73.3384Z" fill="#A2F3F3"/>
<path d="M131.552 37.0652V32.3813C129.248 35.8187 124.942 37.8585 119.578 37.8585C111.268 37.8585 105.904 33.1746 105.904 25.9598C105.904 18.745 111.268 14.0234 119.578 14.0234C124.942 14.0234 129.248 16.0631 131.552 19.5383V6.84637H136.5V37.0652H131.552ZM111.381 25.9598C111.381 30.4926 115.12 33.439 121.164 33.439C127.623 33.439 131.552 30.4926 131.552 25.9598C131.552 21.3892 127.623 18.4429 121.164 18.4429C115.12 18.4429 111.381 21.3892 111.381 25.9598Z" fill="#A2F3F3"/>
<path fill-rule="evenodd" clip-rule="evenodd" d="M156.066 15.7912L156.367 29.0719V29.0945C156.367 30.2374 156.969 31.5566 158.56 32.9877C160.151 34.4182 162.565 35.7981 165.718 36.9979C172.01 39.3924 180.837 40.9159 190.686 40.9159C200.535 40.9159 209.362 39.3939 215.654 37.0003C218.807 35.8009 221.221 34.4212 222.812 32.9906C224.403 31.5595 225.005 30.2395 225.005 29.0945C225.005 27.9495 224.403 26.6294 222.812 25.1984C222.656 25.0583 222.493 24.9187 222.321 24.7798C220.703 25.773 218.832 26.6629 216.775 27.4454C209.923 30.052 200.592 31.6223 190.385 31.6223C183.532 31.6223 178.523 31.2971 173.637 30.1967C168.776 29.1018 164.134 27.2613 157.988 24.3505C157.655 24.2101 157.057 23.8535 156.83 23.0479C156.587 22.1871 156.993 21.5454 157.093 21.3971C157.235 21.1842 157.386 21.0493 157.443 20.9998C157.516 20.9359 157.58 20.8898 157.618 20.8634C157.741 20.7783 157.853 20.7213 157.881 20.707L157.884 20.7057C157.969 20.662 158.062 20.6208 158.134 20.5894C158.293 20.5204 158.511 20.4308 158.776 20.3263C159.312 20.1152 160.088 19.8225 161.059 19.4763C163.001 18.7836 165.746 17.8682 168.933 16.9547C175.266 15.1393 183.509 13.2834 190.686 13.2834C200.893 13.2834 210.224 14.8536 217.076 17.4602C218.987 18.187 220.737 19.0066 222.273 19.9155C222.354 19.8462 222.434 19.7768 222.511 19.7072C224.102 18.2762 224.704 16.9561 224.704 15.8111C224.704 14.6662 224.102 13.3461 222.511 11.915C220.92 10.4844 218.506 9.10474 215.353 7.90529C209.061 5.51168 200.234 3.98973 190.385 3.98973C180.536 3.98973 171.709 5.51168 165.417 7.90529C162.264 9.10474 159.85 10.4844 158.259 11.915C156.677 13.3378 156.073 14.6509 156.066 15.7912ZM225.571 22.3115C227.443 20.5032 228.699 18.3134 228.699 15.8111C228.699 13.1402 227.269 10.8253 225.184 8.95028C223.099 7.07486 220.194 5.47747 216.775 4.17682C209.923 1.57026 200.592 0 190.385 0C180.178 0 170.847 1.57026 163.995 4.17682C160.576 5.47747 157.671 7.07486 155.586 8.95028C153.502 10.8253 152.071 13.1402 152.071 15.8111V15.8337L152.372 29.1188C152.381 31.7783 153.809 34.084 155.887 35.9527C157.972 37.8276 160.877 39.4252 164.296 40.7262C171.148 43.3336 180.479 44.9056 190.686 44.9056C200.893 44.9056 210.224 43.3354 217.076 40.7288C220.495 39.4282 223.4 37.8308 225.485 35.9553C227.57 34.0803 229 31.7654 229 29.0945C229 26.4604 227.609 24.1726 225.571 22.3115ZM218.425 22.3786C217.578 21.9666 216.653 21.5686 215.654 21.1886C209.362 18.795 200.535 17.2731 190.686 17.2731C184.076 17.2731 176.264 19.004 170.035 20.7897C167.719 21.4534 165.645 22.118 163.962 22.6906C167.93 24.4175 171.193 25.5563 174.516 26.3047C178.976 27.3091 183.641 27.6325 190.385 27.6325C200.234 27.6325 209.061 26.1106 215.353 23.717C216.472 23.2916 217.497 22.8435 218.425 22.3786Z" fill="#A2F3F3"/>
</svg>
