<svg width="190" height="38" viewBox="0 0 190 38" fill="none" xmlns="http://www.w3.org/2000/svg">
<path d="M0 30.7529V8.53241H16.7045C22.0011 8.53241 23.9755 10.883 23.9755 14.0797C23.9755 16.5243 22.5965 18.342 20.2147 19.2195C23.004 19.8777 25.2605 21.4447 25.2605 24.7041C25.2605 28.371 22.9099 30.7529 18.1148 30.7529H0ZM4.19963 27.6188H16.7985C19.3998 27.6188 20.9041 26.6159 20.9041 24.234C20.9041 21.6641 18.8984 20.9119 16.7985 20.9119H4.19963V27.6188ZM4.19963 18.2166H15.5449C17.8014 18.2166 19.8072 17.4331 19.8072 14.8945C19.8072 12.638 18.3029 11.6665 15.5449 11.6665H4.19963V18.2166Z" fill="#053057"/>
<path d="M27.1184 30.7529V5.68042H31.2554V30.7529H27.1184Z" fill="#053057"/>
<path d="M46.4776 31.3797C38.4544 31.3797 33.5653 27.7128 33.5653 21.5074C33.5653 15.302 38.5485 11.6038 46.2582 11.6038C54.0307 11.6038 58.7631 15.4273 58.7631 23.0117H38.047C38.6738 26.3025 41.6825 28.0576 46.603 28.0576C50.6459 28.0576 53.3725 26.804 54.1874 24.6728H58.481C57.3528 28.8724 53.2472 31.3797 46.4776 31.3797ZM38.1097 19.7837H54.2814C53.5293 16.3989 50.7713 14.8945 46.2896 14.8945C41.7765 14.8945 38.8619 16.4616 38.1097 19.7837Z" fill="#053057"/>
<path d="M60.8485 30.7529V12.2306H65.2362V16.2422C67.6181 13.2648 71.2849 11.6038 76.0487 11.6038C82.0034 11.6038 85.6389 14.017 85.6389 21.3194V30.7529H81.2512V22.7924C81.2512 17.3391 79.1201 15.2706 74.0742 15.2706C68.8404 15.2706 65.2362 18.1226 65.2362 22.9491V30.7529H60.8485Z" fill="#053057"/>
<path d="M109.148 30.7529V26.8666C107.236 29.7186 103.663 31.411 99.2131 31.411C92.3181 31.411 87.8678 27.5248 87.8678 21.5387C87.8678 15.5527 92.3181 11.6351 99.2131 11.6351C103.663 11.6351 107.236 13.3275 109.148 16.2108V5.68042H113.254V30.7529H109.148ZM92.4122 21.5387C92.4122 25.2996 95.5149 27.7442 100.529 27.7442C105.889 27.7442 109.148 25.2996 109.148 21.5387C109.148 17.7465 105.889 15.302 100.529 15.302C95.5149 15.302 92.4122 17.7465 92.4122 21.5387Z" fill="#053057"/>
<path fill-rule="evenodd" clip-rule="evenodd" d="M129.487 13.1019L129.737 24.1208V24.1396C129.737 25.0878 130.236 26.1824 131.556 27.3697C132.876 28.5566 134.879 29.7015 137.495 30.697C142.716 32.6837 150.04 33.9477 158.211 33.9477C166.383 33.9477 173.707 32.685 178.927 30.699C181.543 29.7038 183.546 28.5591 184.866 27.3721C186.186 26.1848 186.686 25.0895 186.686 24.1396C186.686 23.1896 186.186 22.0943 184.866 20.907C184.737 20.7908 184.601 20.675 184.459 20.5597C183.116 21.3838 181.564 22.1221 179.857 22.7714C174.172 24.934 166.43 26.2368 157.961 26.2368C152.275 26.2368 148.12 25.9671 144.066 25.0541C140.032 24.1456 136.181 22.6186 131.082 20.2035C130.806 20.087 130.309 19.7911 130.121 19.1227C129.92 18.4085 130.257 17.8761 130.339 17.753C130.457 17.5764 130.582 17.4645 130.63 17.4234C130.691 17.3704 130.744 17.3322 130.775 17.3103C130.877 17.2397 130.97 17.1924 130.993 17.1805L130.995 17.1794C131.066 17.1432 131.143 17.1089 131.203 17.0829C131.334 17.0257 131.516 16.9514 131.736 16.8647C132.18 16.6895 132.824 16.4466 133.629 16.1594C135.241 15.5847 137.519 14.8251 140.163 14.0673C145.418 12.561 152.256 11.0211 158.211 11.0211C166.68 11.0211 174.422 12.324 180.107 14.4866C181.692 15.0897 183.144 15.7697 184.419 16.5238C184.486 16.4663 184.552 16.4087 184.616 16.351C185.936 15.1637 186.436 14.0684 186.436 13.1184C186.436 12.1684 185.936 11.0732 184.616 9.88586C183.296 8.69888 181.294 7.55416 178.678 6.55899C173.457 4.57302 166.133 3.31026 157.961 3.31026C149.79 3.31026 142.466 4.57302 137.245 6.55899C134.629 7.55416 132.626 8.69888 131.307 9.88586C129.994 11.0663 129.493 12.1558 129.487 13.1019ZM187.155 18.5118C188.709 17.0114 189.75 15.1945 189.75 13.1184C189.75 10.9024 188.564 8.98169 186.834 7.426C185.104 5.86998 182.694 4.54463 179.857 3.46549C174.172 1.30284 166.43 0 157.961 0C149.493 0 141.751 1.30284 136.066 3.46549C133.229 4.54463 130.819 5.86998 129.089 7.426C127.359 8.98169 126.173 10.9024 126.173 13.1184V13.1372L126.423 24.1597C126.43 26.3663 127.615 28.2794 129.339 29.8298C131.069 31.3854 133.479 32.7109 136.315 33.7904C142 35.9537 149.742 37.258 158.211 37.258C166.68 37.258 174.422 35.9551 180.107 33.7925C182.944 32.7134 185.354 31.388 187.084 29.832C188.813 28.2763 190 26.3556 190 24.1396C190 21.9541 188.846 20.0559 187.155 18.5118ZM181.226 18.5674C180.523 18.2256 179.756 17.8953 178.927 17.5801C173.707 15.5942 166.383 14.3314 158.211 14.3314C152.727 14.3314 146.246 15.7675 141.077 17.2491C139.156 17.7998 137.434 18.3512 136.038 18.8263C139.33 20.2591 142.038 21.204 144.795 21.8249C148.495 22.6583 152.366 22.9266 157.961 22.9266C166.133 22.9266 173.457 21.6638 178.678 19.6779C179.605 19.3249 180.456 18.9532 181.226 18.5674Z" fill="#053057"/>
</svg>
